Coordinates
version=1
nRows=6
nColumns=107
inDegrees=yes

Units are S.I. units (second, meters, Newtons, ...)
If the header above contains a line with 'inDegrees', this indicates whether rotational values are in degrees (yes) or radians (no).

endheader
time	sternoclavicular_r2	sternoclavicular_r3	unrotscap_r3	unrotscap_r2	acromioclavicular_r2	acromioclavicular_r3	acromioclavicular_r1	unrothum_r1	unrothum_r3	unrothum_r2	elv_angle	shoulder_elv	shoulder1_r2	shoulder_rot	elbow_flexion	pro_sup	deviation	flexion	proximal_distal_r1	proximal_distal_r3	cmc_flexion	cmc_abduction	mp_flexion	ip_flexion	mcp2_flexion	mcp2_abduction	pm2_flexion	md2_flexion	mcp3_flexion	mcp3_abduction	pm3_flexion	md3_flexion	mcp4_flexion	mcp4_abduction	pm4_flexion	md4_flexion	mcp5_flexion	mcp5_abduction	pm5_flexion	md5_flexion	bicpt_tx	bicpt_ty	bicpt_tz	bicpt2_tx	bicpt2_ty	bicpt2_tz	ptpt_tx	ptpt_ty	ptpt_tz	FCUpt_tx	FCUpt_ty	FCUpt_tz	EDCpt_tx	EDCpt_ty	EDCpt_tz	APLpt_tx	APLpt_ty	APLpt_tz	FPLpt_tx	FPLpt_ty	FPLpt_tz	FPLpt2_tx	FPLpt2_ty	FPLpt2_tz	PEC1pt2_tx	PEC1pt2_ty	PEC1pt2_tz	PEC1pt3_tx	PEC1pt3_ty	PEC1pt3_tz	PEC2pt2_tx	PEC2pt2_ty	PEC2pt2_tz	PEC2pt3_tx	PEC2pt3_ty	PEC2pt3_tz	PEC3pt2_tx	PEC3pt2_ty	PEC3pt2_tz	PEC3pt3_tx	PEC3pt3_ty	PEC3pt3_tz	DELT2pt2a_tx	DELT2pt2a_ty	DELT2pt2a_tz	DELT2pt2_tx	DELT2pt2_ty	DELT2pt2_tz	LAT1pt2_tx	LAT1pt2_ty	LAT1pt2_tz	LAT1pt3_tx	LAT1pt3_ty	LAT1pt3_tz	LAT2pt2_tx	LAT2pt2_ty	LAT2pt2_tz	LAT2pt3_tx	LAT2pt3_ty	LAT2pt3_tz	LAT3pt2_tx	LAT3pt2_ty	LAT3pt2_tz	LAT3pt3_tx	LAT3pt3_ty	LAT3pt3_tz
      0.60000000	     -0.30972847	      0.13118636	     -0.13118636	      0.30972847	     -0.06271372	      0.50683019	      0.22781668	     -0.22781668	     -0.50683019	      0.06271372	    102.44751619	     73.33096883	     -1.78804647	    -42.18154562	     31.86538671	     86.18479365	      0.34617757	     -0.46116570	      0.37172271	     -0.23058285	     42.70448047	    -14.89685775	     14.73535886	      7.20953339	     93.55207921	     10.24726593	     80.85984514	     77.47778699	     94.60916863	     -1.36660178	     83.42794088	     53.35282762	     88.14633679	    -13.31650471	     99.90964454	     35.81001609	     87.35840003	    -14.11831571	    103.39085877	      5.36187309	      0.00095401	     -0.03125226	     -0.00488828	      0.01422077	     -0.01885639	     -0.00104437	      0.00118192	     -0.06901771	     -0.00699265	      0.01275924	     -0.18223147	      0.00008890	     -0.01034215	      0.00358816	     -0.00076316	      0.00029373	      0.00011749	      0.00058747	      0.00037598	      0.00112794	      0.00063447	     -0.00000594	     -0.00005446	     -0.00006535	      0.00240363	      0.00843307	      0.00586648	     -0.00786272	      0.01898459	     -0.01800684	      0.00240363	      0.00843307	      0.00586648	      0.00052961	      0.01759945	     -0.00924786	      0.00383911	      0.00468952	      0.01569548	      0.00000000	      0.00718800	      0.00000000	     -0.00688497	     -0.03181752	     -0.00592330	      0.02328568	     -0.00119073	     -0.01422275	     -0.00085553	      0.01434029	     -0.00586648	      0.00236289	      0.02069565	     -0.01711057	     -0.00574426	      0.01242554	     -0.00525539	     -0.01197740	      0.02623621	     -0.02937315	     -0.02248818	      0.01389216	     -0.00704793	     -0.01491064	      0.03031016	     -0.03670625
      0.63333333	     -0.31054539	      0.13153237	     -0.13153237	      0.31054539	     -0.06287912	      0.50816696	      0.22841755	     -0.22841755	     -0.50816696	      0.06287912	    101.93712148	     73.52438103	     -1.77913840	    -40.48910824	     32.16282524	     85.82827459	      0.37040253	     -0.38644915	      0.39039083	     -0.19322457	     42.65863454	    -15.24186721	     14.51396752	      7.31595534	     93.18174914	     10.27651494	     80.85100648	     78.02872868	     94.22617892	     -1.27298042	     83.49158432	     53.27360338	     87.90909531	    -13.30968077	     99.55079456	     36.15769624	     87.09151574	    -14.11860815	    102.80612259	      5.38725857	      0.00096385	     -0.03128635	     -0.00489377	      0.01425763	     -0.01893719	     -0.00110543	      0.00120826	     -0.06900067	     -0.00696393	      0.01271828	     -0.18224355	      0.00007908	     -0.01029937	      0.00356859	     -0.00075171	      0.00027032	      0.00010813	      0.00054065	      0.00034602	      0.00103805	      0.00058390	     -0.00000604	     -0.00005549	     -0.00006659	      0.00240997	      0.00845531	      0.00588196	     -0.00788345	      0.01903466	     -0.01805434	      0.00240997	      0.00845531	      0.00588196	      0.00053101	      0.01764587	     -0.00927225	      0.00384662	      0.00470189	      0.01571467	      0.00000000	      0.00722620	      0.00000000	     -0.00690313	     -0.03190144	     -0.00595504	      0.02279203	     -0.00112870	     -0.01320505	     -0.00085779	      0.01437811	     -0.00588196	      0.00236912	      0.02075023	     -0.01715570	     -0.00575941	      0.01245831	     -0.00526925	     -0.01200899	      0.02630541	     -0.02945062	     -0.02254750	      0.01392880	     -0.00706652	     -0.01494997	      0.03039010	     -0.03680307
      0.66666667	     -0.30984818	      0.13123706	     -0.13123706	      0.30984818	     -0.06273795	      0.50702607	      0.22790473	     -0.22790473	     -0.50702607	      0.06273795	    102.32869003	     73.35931030	     -1.78597256	    -41.83526895	     31.98278756	     86.15031839	      0.35120596	     -0.43939722	      0.37567750	     -0.21969861	     42.68971761	    -15.11915868	     14.53336441	      7.12020944	     93.50366185	     10.24611012	     80.63960332	     78.12056171	     94.45169012	     -1.28578629	     83.42192660	     53.25922742	     88.09304768	    -13.31849445	     99.68343395	     35.76593693	     87.27554896	    -14.11667444	    103.06869062	      5.39385046	      0.00095789	     -0.03126572	     -0.00489045	      0.01422435	     -0.01888828	     -0.00105029	      0.00118446	     -0.06901606	     -0.00698987	      0.01275527	     -0.18223264	      0.00008794	     -0.01033801	      0.00358626	     -0.00076205	      0.00028790	      0.00011516	      0.00057579	      0.00036851	      0.00110553	      0.00062186	     -0.00000597	     -0.00005479	     -0.00006575	      0.00240456	      0.00843633	      0.00586875	     -0.00786575	      0.01899193	     -0.01801380	      0.00240456	      0.00843633	      0.00586875	      0.00052982	      0.01760625	     -0.00925143	      0.00384021	      0.00469133	      0.01569830	      0.00000000	      0.00719359	      0.00000000	     -0.00688763	     -0.03182982	     -0.00592795	      0.02318782	     -0.00117800	     -0.01401265	     -0.00085586	      0.01434583	     -0.00586875	      0.00236380	      0.02070365	     -0.01711719	     -0.00574648	      0.01243034	     -0.00525742	     -0.01198203	      0.02624635	     -0.02938450	     -0.02249687	      0.01389753	     -0.00705065	     -0.01491641	      0.03032187	     -0.03672044
      0.70000000	     -0.31099479	      0.13172271	     -0.13172271	      0.31099479	     -0.06297012	      0.50890235	      0.22874810	     -0.22874810	     -0.50890235	      0.06297012	    101.82270306	     73.63078071	     -1.77714142	    -40.02217149	     32.15183508	     85.72844460	      0.37205424	     -0.37564931	      0.39162959	     -0.18782465	     42.64201158	    -15.57909628	     14.36724066	      7.77153159	     93.42997479	     10.33982816	     80.54053948	     78.31461302	     94.41749046	     -1.20473869	     83.24644744	     53.50344796	     88.21174370	    -13.33068570	     99.05023837	     35.49304740	     87.57908071	    -14.12012345	    101.48357016	      5.44834959	      0.00096348	     -0.03128509	     -0.00489357	      0.01426792	     -0.01893420	     -0.00112251	      0.00121564	     -0.06899590	     -0.00695589	      0.01270681	     -0.18224692	      0.00007634	     -0.01028739	      0.00356312	     -0.00074851	      0.00026617	      0.00010647	      0.00053235	      0.00034070	      0.00102211	      0.00057494	     -0.00000607	     -0.00005586	     -0.00006703	      0.00241346	      0.00846755	      0.00589047	     -0.00789486	      0.01906221	     -0.01808046	      0.00241346	      0.00846755	      0.00589047	      0.00053178	      0.01767140	     -0.00928567	      0.00385075	      0.00470870	      0.01572518	      0.00000000	      0.00724726	      0.00000000	     -0.00691312	     -0.03194760	     -0.00597254	      0.02264920	     -0.00111166	     -0.01292833	     -0.00085903	      0.01439892	     -0.00589047	      0.00237255	      0.02078026	     -0.01718053	     -0.00576775	      0.01247634	     -0.00527688	     -0.01202637	      0.02634348	     -0.02949324	     -0.02258013	      0.01394895	     -0.00707674	     -0.01497160	      0.03043408	     -0.03685633
      0.73333333	     -0.31030927	      0.13143236	     -0.13143236	      0.31030927	     -0.06283132	      0.50778059	      0.22824388	     -0.22824388	     -0.50778059	      0.06283132	    102.17993090	     73.46847862	     -1.78337622	    -41.17475718	     31.95620699	     86.00508914	      0.36148569	     -0.41343760	      0.38363130	     -0.20671880	     42.64688468	    -15.44314277	     14.52064219	      7.21741335	     93.30662345	     10.24577345	     80.69568012	     77.92635103	     94.50609196	     -1.31940048	     83.35917497	     53.46919136	     88.22400036	    -13.30940039	     99.51907627	     35.37952216	     87.66105684	    -14.11494400	    102.45345819	      5.36635541	      0.00095701	     -0.03126267	     -0.00488996	      0.01423938	     -0.01888106	     -0.00107517	      0.00119519	     -0.06900912	     -0.00697817	      0.01273859	     -0.18223756	      0.00008394	     -0.01032059	      0.00357829	     -0.00075738	      0.00027991	      0.00011196	      0.00055981	      0.00035828	      0.00107484	      0.00060460	     -0.00000606	     -0.00005575	     -0.00006690	      0.00240814	      0.00844888	      0.00587748	     -0.00787746	      0.01902019	     -0.01804061	      0.00240814	      0.00844888	      0.00587748	      0.00053061	      0.01763245	     -0.00926520	      0.00384445	      0.00469832	      0.01570913	      0.00000000	      0.00721515	      0.00000000	     -0.00689788	     -0.03187718	     -0.00594586	      0.02299664	     -0.00115377	     -0.01361456	     -0.00085713	      0.01436718	     -0.00587748	      0.00236732	      0.02073445	     -0.01714266	     -0.00575504	      0.01244884	     -0.00526525	     -0.01199986	      0.02628541	     -0.02942823	     -0.02253035	      0.01391821	     -0.00706114	     -0.01493860	      0.03036700	     -0.03677509
      0.76666667	     -0.31031341	      0.13143411	     -0.13143411	      0.31031341	     -0.06283215	      0.50778736	      0.22824692	     -0.22824692	     -0.50778736	      0.06283215	    101.99166070	     73.46945744	     -1.78009029	    -40.77312246	     32.24084454	     85.99882015	      0.36503219	     -0.38332916	      0.38633525	     -0.19166458	     42.58447145	    -15.54248490	     14.35642818	      6.76511209	     93.06124525	     10.27034928	     81.00587479	     77.89966834	     94.26331560	     -1.21396869	     83.32631752	     53.74487059	     87.86125398	    -13.30637265	     99.43313061	     35.20557316	     87.09155823	    -14.11500921	    102.55988042	      5.38379002	      0.00096643	     -0.03129529	     -0.00489522	      0.01424003	     -0.01895838	     -0.00107624	      0.00119566	     -0.06900882	     -0.00697767	      0.01273787	     -0.18223778	      0.00008376	     -0.01031983	      0.00357795	     -0.00075718	      0.00026915	      0.00010766	      0.00053829	      0.00034451	      0.00103352	      0.00058136	     -0.00000620	     -0.00005715	     -0.00006858	      0.00240817	      0.00844899	      0.00587756	     -0.00787757	      0.01902044	     -0.01804085	      0.00240817	      0.00844899	      0.00587756	      0.00053061	      0.01763268	     -0.00926532	      0.00384449	      0.00469838	      0.01570923	      0.00000000	      0.00721534	      0.00000000	     -0.00689797	     -0.03187761	     -0.00594602	      0.02287756	     -0.00113908	     -0.01337420	     -0.00085714	      0.01436737	     -0.00587756	      0.00236735	      0.02073473	     -0.01714289	     -0.00575511	      0.01244900	     -0.00526532	     -0.01200002	      0.02628576	     -0.02942862	     -0.02253065	      0.01391839	     -0.00706124	     -0.01493880	      0.03036740	     -0.03677558
